<?xml version="1.0" encoding="UTF-8"?>
<svg id="_Слой_1" data-name="Слой 1" xmlns="http://www.w3.org/2000/svg" viewBox="0 0 109.26 109.51">
  <defs>
    <style>
      .cls-1 {
        fill: #fff;
      }
    </style>
  </defs>
  <g>
    <path class="cls-1" d="M109.26,54.68c0,30.11-24.39,54.5-54.5,54.5-3.35,0-6.58-.37-9.76-.95,.18-.01,45.61-6.51,13.89-55.56,2.19-1.03,4.46-1.89,6.79-2.55,1.65-.47,3.35-.87,5.04-1.14,1.71-.28,3.45-.16,5.16-.51h.02s.01,0,.02-.01c3.86-.32,6.9-3.56,6.9-7.52,0-4.16-3.38-7.55-7.55-7.55-.96,0-1.89,.18-2.73,.52-.07,.02-.14,.04-.2,.07-1.02,.32-2.01,.9-2.86,1.76-1.43,1.41-2.13,3.18-3.21,4.83-1,1.52-2.29,3-3.53,4.34-1.71,1.88-3.57,3.61-5.56,5.19-.94-1.37-1.93-2.78-2.98-4.21-10.12-13.8-8.39-29.45,4.24-35.46,16.7-7.95,32.18,2.9,35.69,6.56,9.37,9.8,15.14,23.08,15.14,37.7Z"/>
    <path class="cls-1" d="M55.07,63.3c10.13,13.8,8.4,29.45-4.24,35.46-16.69,7.95-32.18-2.9-35.68-6.56C5.76,82.41,0,69.12,0,54.5,0,24.39,24.4,0,54.51,0c3.35,0,6.57,.37,9.76,.95-.18,.01-44.68,6.38-14.85,54.06-3.63,1.82-7.53,3.09-11.59,3.62-1.72,.23-3.66,.42-5.49,.85-4.09,.1-7.36,3.43-7.36,7.53,0,3.89,2.94,7.09,6.71,7.49,.12,.02,.25,.04,.37,.05,.17,.01,.32,.02,.49,.02,1.24,0,2.41-.31,3.43-.84,.22-.11,.43-.23,.64-.36,.01-.01,.02-.02,.04-.02,.2-.14,.41-.29,.6-.45,.04-.02,.07-.06,.11-.1,.19-.16,.39-.34,.55-.52,.2-.19,.39-.41,.55-.64,.12-.13,.22-.26,.31-.41,.06-.07,.11-.14,.16-.23,1.44-2.29,3.03-4.46,4.77-6.52,2.18-2.59,4.62-4.96,7.29-7.02,1.24,1.88,2.59,3.81,4.06,5.82Z"/>
    <path class="cls-1" d="M38.8,71.24c-1.41,2.12-3.24,3.35-5.96,3.35-.1,0-.18,0-.28-.01,2.59-.01,4.87-1.32,6.23-3.33Z"/>
  </g>
</svg>