<?xml version="1.0" encoding="UTF-8"?>
<svg id="_Слой_1" data-name="Слой 1" xmlns="http://www.w3.org/2000/svg" xmlns:xlink="http://www.w3.org/1999/xlink" viewBox="0 0 351.94 351.71">
  <defs>
    <style>
      .cls-1 {
        fill: url(#_Безымянный_градиент_21);
      }

      .cls-2 {
        fill: url(#_Безымянный_градиент_19);
      }
    </style>
    <linearGradient id="_Безымянный_градиент_21" data-name="Безымянный градиент 21" x1="249.87" y1="314" x2="244.27" y2="107.06" gradientUnits="userSpaceOnUse">
      <stop offset="0" stop-color="#d51e18"/>
      <stop offset=".55" stop-color="#e4681e"/>
      <stop offset="1" stop-color="#f1a223"/>
    </linearGradient>
    <linearGradient id="_Безымянный_градиент_19" data-name="Безымянный градиент 19" x1="99.41" y1="287.61" x2="103.68" y2="80.64" gradientUnits="userSpaceOnUse">
      <stop offset="0" stop-color="#4a8cde"/>
      <stop offset=".68" stop-color="#6eba5a"/>
      <stop offset="1" stop-color="#7ecf21"/>
    </linearGradient>
  </defs>
  <path class="cls-1" d="M351.94,176.14c0,96.99-78.57,175.56-175.56,175.56-10.78,0-21.2-1.2-31.44-3.06,.58-.04,146.92-20.97,44.73-178.97,7.06-3.33,14.38-6.09,21.86-8.22,5.31-1.51,10.78-2.79,16.24-3.68,5.5-.89,11.13-.5,16.63-1.63h.08s.04,0,.08-.04c12.44-1.05,22.21-11.47,22.21-24.23,0-13.41-10.89-24.31-24.31-24.31-3.1,0-6.09,.58-8.8,1.67-.23,.08-.47,.12-.66,.23-3.29,1.05-6.47,2.91-9.23,5.66-4.61,4.54-6.86,10.23-10.35,15.54-3.22,4.88-7.37,9.65-11.36,13.99-5.5,6.05-11.51,11.63-17.91,16.71-3.02-4.42-6.2-8.95-9.61-13.57-32.6-44.46-27.02-94.86,13.65-114.24,53.8-25.62,103.66,9.34,114.97,21.13,30.2,31.55,48.77,74.35,48.77,121.45Z"/>
  <path class="cls-2" d="M177.38,203.9c32.64,44.46,27.06,94.86-13.65,114.24-53.77,25.62-103.66-9.34-114.94-21.13C18.57,265.46,0,222.66,0,175.56,0,78.57,78.61,0,175.6,0c10.78,0,21.17,1.2,31.44,3.06-.58,.04-143.93,20.54-47.83,174.13-11.71,5.85-24.27,9.96-37.33,11.67-5.54,.74-11.78,1.36-17.68,2.75-13.18,.31-23.72,11.05-23.72,24.27,0,12.52,9.46,22.83,21.63,24.11,.39,.08,.81,.12,1.2,.15,.54,.04,1.05,.08,1.59,.08,3.99,0,7.75-1.01,11.05-2.71,.7-.35,1.4-.74,2.05-1.16,.04-.04,.08-.08,.12-.08,.66-.47,1.32-.93,1.94-1.43,.12-.08,.23-.19,.35-.31,.62-.5,1.24-1.09,1.78-1.67,.66-.62,1.24-1.32,1.78-2.05,.39-.43,.7-.85,1.01-1.32,.19-.23,.35-.47,.5-.74,4.65-7.37,9.77-14.38,15.35-21.01,7.02-8.33,14.89-15.97,23.49-22.6,3.99,6.05,8.33,12.29,13.06,18.76Z"/>
</svg>